{"title":"Paul 2011 DVDrip English Klam","uid":6462387,"size":1570652818,"categoryP":"video","categoryS":"movies","magnet":"?xt=urn:btih:f4ddd2d943e1379bd782a0b40f5dae550faac5b4&amp;dn=Paul+2011+DVDrip+English+Klam&amp;tr=udp%3A%2F%2Ftracker.openbittorrent.com%3A80&amp;tr=udp%3A%2F%2Fopen.demonii.com%3A1337&amp;tr=udp%3A%2F%2Ftracker.coppersurfer.tk%3A6969&amp;tr=udp%3A%2F%2Fexodus.desync.com%3A6969","seeders":0,"leechers":0,"uploader":"Klambake","files":-1,"time":1307818187,"description":"With: Simon Pegg, Nick Frost and the voice of Seth Rogen\n\nGraham en Clive (Simon Pegg &amp; Nick Frost) zijn twee vrienden die enorm gek zijn op stripboeken en vooral interesse hebben in science-fiction verhalen. Samen gaan ze op reis naar het UFO-centrum van Amerika, namelijk het beruchte ''Area 51'' in Nevada. Als ze midden in de woestijn zijn komen ze een voortvluchtige Alien tegen, genaamd Paul (Seth Rogen). Ze gaan samen met Paul verder op een reis die zowel hun levens als die van iedereen die op hun pad komt zal veranderen.\n\nTwo British comic-book geeks traveling across the U.S. encounter an alien outside Area 51. \n\n------------------ Dutch Friends ------------------\n\nYou can find my Friends at: http://www.Film-Test.nl \n                    \n------ They got my dutchs subs ---- and more ------\n\nGeneral:\n\nComplete name                    : Paul\\Paul.avi\nFormat                           : AVI\nFormat/Info                      : Audio Video Interleave\nFile size                        : 1.46 GiB\nDuration                         : 1h 39mn\nOverall bit rate                 : 2 105 Kbps\n\nVideo:\n\nFormat                           : MPEG-4 Visual\nFormat profile                   : Simple@L3\nFormat settings, BVOP            : No\nFormat settings, QPel            : No\nFormat settings, GMC             : No warppoints\nFormat settings, Matrix          : Default (H.263)\nCodec ID                         : XVID\nCodec ID/Hint                    : XviD\nDuration                         : 1h 39mn\nBit rate                         : 1 711 Kbps\nWidth                            : 720 pixels\nHeight                           : 304 pixels\nDisplay aspect ratio             : 2.35:1\nFrame rate                       : 25.000 fps\nColor space                      : YUV\nChroma subsampling               : 4:2:0\nBit depth                        : 8 bits\nScan type                        : Progressive\nBits/(Pixel*Frame)               : 0.313\nStream size                      : 1.19 GiB (81%)\nWriting library                  : XviD 1.1.2 (UTC 2006-11-01)\n\nAudio:\n\nFormat                           : AC-3\nFormat/Info                      : Audio Coding 3\nMode extension                   : CM (complete main)\nCodec ID                         : 2000\nDuration                         : 1h 39mn\nBit rate mode                    : Constant\nBit rate                         : 384 Kbps\nChannel(s)                       : 6 channels\nChannel positions                : Front: L C R, Side: L R, LFE\nSampling rate                    : 48.0 KHz\nBit depth                        : 16 bits\nStream size                      : 273 MiB (18%)\nAlignment                        : Aligned on interleaves\nInterleave, duration             : 32 ms (0.80 video frame)\nInterleave, preload duration     : 896 ms\n\n\n\n","torrent":{"xt":"urn:btih:f4ddd2d943e1379bd782a0b40f5dae550faac5b4","amp;dn":"Paul+2011+DVDrip+English+Klam","amp;tr":["udp%3A%2F%2Ftracker.openbittorrent.com%3A80","udp%3A%2F%2Fopen.demonii.com%3A1337","udp%3A%2F%2Ftracker.coppersurfer.tk%3A6969","udp%3A%2F%2Fexodus.desync.com%3A6969"],"infoHash":"f4ddd2d943e1379bd782a0b40f5dae550faac5b4","infoHashBuffer":{"type":"Buffer","data":[244,221,210,217,67,225,55,155,215,130,160,180,15,93,174,85,15,170,197,180]},"announce":[],"urlList":[]}}